{
  "version": "1.1.6",
  "modules": [
    {
      "id": 23,
      "plugin": "Core",
      "version": "1.1.6",
      "model": "AudioInterface16",
      "params": [],
      "data": {
        "audio": {
          "driver": 7,
          "deviceName": "ASIO Fireface USB",
          "offset": 0,
          "maxChannels": 16,
          "sampleRate": 48000,
          "blockSize": 512
        }
      },
      "pos": [
        102,
        1
      ]
    },
    {
      "id": 52,
      "plugin": "Fundamental",
      "version": "1.4.0",
      "model": "SEQ3",
      "params": [
        {
          "id": 0,
          "value": -0.236220479
        },
        {
          "id": 1,
          "value": 0.0
        },
        {
          "id": 2,
          "value": 0.0
        },
        {
          "id": 3,
          "value": 2.0
        },
        {
          "id": 4,
          "value": 2.13790083
        },
        {
          "id": 5,
          "value": 2.67000055
        },
        {
          "id": 6,
          "value": 1.15499997
        },
        {
          "id": 7,
          "value": 3.32699132
        },
        {
          "id": 8,
          "value": 3.12356544
        },
        {
          "id": 9,
          "value": 2.46098757
        },
        {
          "id": 10,
          "value": 2.09602022
        },
        {
          "id": 11,
          "value": 4.39575815
        },
        {
          "id": 12,
          "value": 2.57626891
        },
        {
          "id": 13,
          "value": 3.66815138
        },
        {
          "id": 14,
          "value": 0.706958294
        },
        {
          "id": 15,
          "value": 0.0
        },
        {
          "id": 16,
          "value": 2.65000033
        },
        {
          "id": 17,
          "value": 3.10140014
        },
        {
          "id": 18,
          "value": 0.138473704
        },
        {
          "id": 19,
          "value": 7.81763744
        },
        {
          "id": 20,
          "value": 0.819050968
        },
        {
          "id": 21,
          "value": 6.08999968
        },
        {
          "id": 22,
          "value": 7.64107943
        },
        {
          "id": 23,
          "value": 0.427948833
        },
        {
          "id": 24,
          "value": 2.63732553
        },
        {
          "id": 25,
          "value": 2.73652029
        },
        {
          "id": 26,
          "value": 7.61766005
        },
        {
          "id": 27,
          "value": 7.48984241
        },
        {
          "id": 28,
          "value": 0.0
        },
        {
          "id": 29,
          "value": 0.0
        },
        {
          "id": 30,
          "value": 0.0
        },
        {
          "id": 31,
          "value": 0.0
        },
        {
          "id": 32,
          "value": 0.0
        },
        {
          "id": 33,
          "value": 0.0
        },
        {
          "id": 34,
          "value": 0.0
        },
        {
          "id": 35,
          "value": 0.0
        }
      ],
      "leftModuleId": 102,
      "rightModuleId": 94,
      "data": {
        "running": true,
        "gates": [
          1,
          1,
          1,
          1,
          1,
          1,
          0,
          0
        ]
      },
      "pos": [
        24,
        0
      ]
    },
    {
      "id": 58,
      "plugin": "AudibleInstruments",
      "version": "1.3.1",
      "model": "Stages",
      "params": [
        {
          "id": 0,
          "value": 0.5
        },
        {
          "id": 1,
          "value": 0.5
        },
        {
          "id": 2,
          "value": 0.507000029
        },
        {
          "id": 3,
          "value": 0.5
        },
        {
          "id": 4,
          "value": 0.5
        },
        {
          "id": 5,
          "value": 0.5
        },
        {
          "id": 6,
          "value": 0.0
        },
        {
          "id": 7,
          "value": 0.0
        },
        {
          "id": 8,
          "value": 0.0
        },
        {
          "id": 9,
          "value": 0.0
        },
        {
          "id": 10,
          "value": 0.0
        },
        {
          "id": 11,
          "value": 0.0
        },
        {
          "id": 12,
          "value": 0.439999968
        },
        {
          "id": 13,
          "value": 0.52700001
        },
        {
          "id": 14,
          "value": 0.140999958
        },
        {
          "id": 15,
          "value": 0.474000037
        },
        {
          "id": 16,
          "value": 0.444000304
        },
        {
          "id": 17,
          "value": 0.602999985
        }
      ],
      "leftModuleId": 75,
      "rightModuleId": 96,
      "data": {
        "configurations": [
          {
            "type": 0,
            "loop": false
          },
          {
            "type": 0,
            "loop": false
          },
          {
            "type": 2,
            "loop": true
          },
          {
            "type": 0,
            "loop": false
          },
          {
            "type": 0,
            "loop": false
          },
          {
            "type": 0,
            "loop": false
          }
        ]
      },
      "pos": [
        38,
        1
      ]
    },
    {
      "id": 66,
      "plugin": "EricaCopies",
      "version": "1.0.4",
      "model": "BlackOctasource",
      "params": [
        {
          "id": 0,
          "value": 0.171999559
        },
        {
          "id": 1,
          "value": 2.04750109
        },
        {
          "id": 2,
          "value": 0.300000042
        },
        {
          "id": 3,
          "value": 0.0
        }
      ],
      "leftModuleId": 99,
      "rightModuleId": 109,
      "data": {
        "unliPolarMode": false
      },
      "pos": [
        76,
        1
      ]
    },
    {
      "id": 73,
      "plugin": "AudibleInstruments",
      "version": "1.3.1",
      "model": "Marbles",
      "params": [
        {
          "id": 0,
          "value": 0.0
        },
        {
          "id": 1,
          "value": 0.0
        },
        {
          "id": 2,
          "value": 0.212000027
        },
        {
          "id": 3,
          "value": 0.35800001
        },
        {
          "id": 4,
          "value": 0.634999931
        },
        {
          "id": 5,
          "value": 0.0
        },
        {
          "id": 6,
          "value": 0.0
        },
        {
          "id": 7,
          "value": 0.107999995
        },
        {
          "id": 8,
          "value": 0.5
        },
        {
          "id": 9,
          "value": 0.611000001
        },
        {
          "id": 10,
          "value": 0.0
        },
        {
          "id": 11,
          "value": 0.0
        },
        {
          "id": 12,
          "value": 0.0
        },
        {
          "id": 13,
          "value": 0.461999983
        },
        {
          "id": 14,
          "value": 0.681500077
        }
      ],
      "rightModuleId": 100,
      "data": {
        "t_deja_vu": true,
        "x_deja_vu": true,
        "t_mode": 1,
        "x_mode": 0,
        "t_range": 1,
        "x_range": 2,
        "external": false,
        "x_scale": 0,
        "y_divider_index": 8,
        "x_clock_source_internal": 0
      },
      "pos": [
        76,
        0
      ]
    },
    {
      "id": 75,
      "plugin": "AudibleInstruments",
      "version": "1.3.1",
      "model": "Veils",
      "params": [
        {
          "id": 0,
          "value": 0.318000078
        },
        {
          "id": 1,
          "value": 0.356999964
        },
        {
          "id": 2,
          "value": 0.366000056
        },
        {
          "id": 3,
          "value": 0.0
        },
        {
          "id": 4,
          "value": 0.0
        },
        {
          "id": 5,
          "value": 0.0
        },
        {
          "id": 6,
          "value": 1.0
        },
        {
          "id": 7,
          "value": 1.0
        }
      ],
      "leftModuleId": 76,
      "rightModuleId": 58,
      "pos": [
        26,
        1
      ]
    },
    {
      "id": 76,
      "plugin": "AudibleInstruments",
      "version": "1.3.1",
      "model": "Veils",
      "params": [
        {
          "id": 0,
          "value": 0.238500014
        },
        {
          "id": 1,
          "value": 0.181499958
        },
        {
          "id": 2,
          "value": 0.0
        },
        {
          "id": 3,
          "value": 0.0
        },
        {
          "id": 4,
          "value": 0.509500027
        },
        {
          "id": 5,
          "value": 0.534999907
        },
        {
          "id": 6,
          "value": 1.0
        },
        {
          "id": 7,
          "value": 1.0
        }
      ],
      "rightModuleId": 75,
      "pos": [
        14,
        1
      ]
    },
    {
      "id": 79,
      "plugin": "AudibleInstruments",
      "version": "1.3.1",
      "model": "Clouds",
      "params": [
        {
          "id": 0,
          "value": 0.0
        },
        {
          "id": 1,
          "value": 0.0
        },
        {
          "id": 2,
          "value": 0.0
        },
        {
          "id": 3,
          "value": 0.501000106
        },
        {
          "id": 4,
          "value": 0.0255000014
        },
        {
          "id": 5,
          "value": -0.419999987
        },
        {
          "id": 6,
          "value": 0.0
        },
        {
          "id": 7,
          "value": 0.33100003
        },
        {
          "id": 8,
          "value": 0.359500021
        },
        {
          "id": 9,
          "value": 0.554999888
        },
        {
          "id": 10,
          "value": 0.6674999
        },
        {
          "id": 11,
          "value": 0.509500146
        },
        {
          "id": 12,
          "value": 0.49150005
        }
      ],
      "leftModuleId": 104,
      "rightModuleId": 101,
      "data": {
        "playback": 0,
        "quality": 0,
        "blendMode": 0
      },
      "pos": [
        71,
        2
      ]
    },
    {
      "id": 84,
      "plugin": "NYSTHI",
      "version": "1.0.13",
      "model": "MultiTrack",
      "params": [
        {
          "id": 0,
          "value": 0.0
        },
        {
          "id": 1,
          "value": 0.0
        },
        {
          "id": 2,
          "value": 1.0
        },
        {
          "id": 3,
          "value": 0.0
        }
      ],
      "rightModuleId": 111,
      "data": {
        "nysthi_id": "MT_lRIGMCZ8",
        "wavebits": 10,
        "m_attenuation": 0.5
      },
      "pos": [
        156,
        1
      ]
    },
    {
      "id": 89,
      "plugin": "Fundamental",
      "version": "1.4.0",
      "model": "SequentialSwitch1",
      "params": [
        {
          "id": 0,
          "value": 0.0
        }
      ],
      "pos": [
        59,
        0
      ]
    },
    {
      "id": 90,
      "plugin": "Fundamental",
      "version": "1.4.0",
      "model": "SequentialSwitch2",
      "params": [
        {
          "id": 0,
          "value": 0.0
        }
      ],
      "pos": [
        65,
        0
      ]
    },
    {
      "id": 93,
      "plugin": "Fundamental",
      "version": "1.4.0",
      "model": "SequentialSwitch2",
      "params": [
        {
          "id": 0,
          "value": 2.0
        }
      ],
      "pos": [
        70,
        0
      ]
    },
    {
      "id": 94,
      "plugin": "Fundamental",
      "version": "1.4.0",
      "model": "Quantizer",
      "params": [],
      "leftModuleId": 52,
      "rightModuleId": 95,
      "data": {
        "enabledNotes": [
          false,
          false,
          false,
          false,
          true,
          false,
          false,
          false,
          true,
          true,
          true,
          false
        ]
      },
      "pos": [
        46,
        0
      ]
    },
    {
      "id": 95,
      "plugin": "Fundamental",
      "version": "1.4.0",
      "model": "Quantizer",
      "params": [],
      "leftModuleId": 94,
      "data": {
        "enabledNotes": [
          false,
          false,
          true,
          false,
          false,
          true,
          false,
          true,
          true,
          false,
          true,
          false
        ]
      },
      "pos": [
        49,
        0
      ]
    },
    {
      "id": 96,
      "plugin": "AudibleInstruments",
      "version": "1.3.1",
      "model": "Plaits",
      "params": [
        {
          "id": 0,
          "value": 0.0
        },
        {
          "id": 1,
          "value": 0.0
        },
        {
          "id": 2,
          "value": -2.50800061
        },
        {
          "id": 3,
          "value": 0.158999905
        },
        {
          "id": 4,
          "value": 0.243000269
        },
        {
          "id": 5,
          "value": 0.23050034
        },
        {
          "id": 6,
          "value": -0.365999967
        },
        {
          "id": 7,
          "value": 0.0
        },
        {
          "id": 8,
          "value": -0.485999972
        },
        {
          "id": 9,
          "value": 0.5
        },
        {
          "id": 10,
          "value": 0.5
        }
      ],
      "leftModuleId": 58,
      "rightModuleId": 99,
      "data": {
        "lowCpu": false,
        "model": 4
      },
      "pos": [
        52,
        1
      ]
    },
    {
      "id": 98,
      "plugin": "Fundamental",
      "version": "1.4.0",
      "model": "SequentialSwitch2",
      "params": [
        {
          "id": 0,
          "value": 0.0
        }
      ],
      "pos": [
        54,
        0
      ]
    },
    {
      "id": 99,
      "plugin": "AudibleInstruments",
      "version": "1.3.1",
      "model": "Plaits",
      "params": [
        {
          "id": 0,
          "value": 0.0
        },
        {
          "id": 1,
          "value": 0.0
        },
        {
          "id": 2,
          "value": -3.35200095
        },
        {
          "id": 3,
          "value": 0.484500021
        },
        {
          "id": 4,
          "value": 0.218999878
        },
        {
          "id": 5,
          "value": 0.124000125
        },
        {
          "id": 6,
          "value": 0.297000021
        },
        {
          "id": 7,
          "value": 0.0
        },
        {
          "id": 8,
          "value": 0.0
        },
        {
          "id": 9,
          "value": 0.5
        },
        {
          "id": 10,
          "value": 0.5
        }
      ],
      "leftModuleId": 96,
      "rightModuleId": 66,
      "data": {
        "lowCpu": false,
        "model": 11
      },
      "pos": [
        64,
        1
      ]
    },
    {
      "id": 100,
      "plugin": "AudibleInstruments",
      "version": "1.3.1",
      "model": "Marbles",
      "params": [
        {
          "id": 0,
          "value": 0.0
        },
        {
          "id": 1,
          "value": 0.0
        },
        {
          "id": 2,
          "value": 0.23299998
        },
        {
          "id": 3,
          "value": 0.0460000411
        },
        {
          "id": 4,
          "value": 1.0
        },
        {
          "id": 5,
          "value": 0.0
        },
        {
          "id": 6,
          "value": 0.0
        },
        {
          "id": 7,
          "value": 0.394500047
        },
        {
          "id": 8,
          "value": 0.639499903
        },
        {
          "id": 9,
          "value": 0.640999973
        },
        {
          "id": 10,
          "value": 0.0
        },
        {
          "id": 11,
          "value": 0.0
        },
        {
          "id": 12,
          "value": 0.0
        },
        {
          "id": 13,
          "value": 0.719999969
        },
        {
          "id": 14,
          "value": 0.935000062
        }
      ],
      "leftModuleId": 73,
      "rightModuleId": 107,
      "data": {
        "t_deja_vu": true,
        "x_deja_vu": true,
        "t_mode": 2,
        "x_mode": 2,
        "t_range": 1,
        "x_range": 2,
        "external": false,
        "x_scale": 0,
        "y_divider_index": 8,
        "x_clock_source_internal": 0
      },
      "pos": [
        94,
        0
      ]
    },
    {
      "id": 101,
      "plugin": "Befaco",
      "version": "1.0.1",
      "model": "Rampage",
      "params": [
        {
          "id": 0,
          "value": 1.0
        },
        {
          "id": 1,
          "value": 0.0
        },
        {
          "id": 2,
          "value": 0.459999979
        },
        {
          "id": 3,
          "value": 0.825999916
        },
        {
          "id": 4,
          "value": 0.0
        },
        {
          "id": 5,
          "value": 0.0
        },
        {
          "id": 6,
          "value": 0.0
        },
        {
          "id": 7,
          "value": 0.0
        },
        {
          "id": 8,
          "value": 0.210000083
        },
        {
          "id": 9,
          "value": 1.0
        },
        {
          "id": 10,
          "value": 1.0
        },
        {
          "id": 11,
          "value": 1.0
        },
        {
          "id": 12,
          "value": 0.495500147
        }
      ],
      "leftModuleId": 79,
      "pos": [
        89,
        2
      ]
    },
    {
      "id": 102,
      "plugin": "Fundamental",
      "version": "1.4.0",
      "model": "SEQ3",
      "params": [
        {
          "id": 0,
          "value": 0.395356715
        },
        {
          "id": 1,
          "value": 0.0
        },
        {
          "id": 2,
          "value": 0.0
        },
        {
          "id": 3,
          "value": 3.0
        },
        {
          "id": 4,
          "value": 0.0
        },
        {
          "id": 5,
          "value": 2.26031065
        },
        {
          "id": 6,
          "value": 3.48000026
        },
        {
          "id": 7,
          "value": 0.986990273
        },
        {
          "id": 8,
          "value": 0.798565269
        },
        {
          "id": 9,
          "value": 2.46098757
        },
        {
          "id": 10,
          "value": 2.09602022
        },
        {
          "id": 11,
          "value": 4.39575815
        },
        {
          "id": 12,
          "value": 2.57626891
        },
        {
          "id": 13,
          "value": 3.66815138
        },
        {
          "id": 14,
          "value": 0.706958294
        },
        {
          "id": 15,
          "value": 0.0
        },
        {
          "id": 16,
          "value": 2.65000033
        },
        {
          "id": 17,
          "value": 1.96140015
        },
        {
          "id": 18,
          "value": 0.138473704
        },
        {
          "id": 19,
          "value": 7.81763744
        },
        {
          "id": 20,
          "value": 7.49405003
        },
        {
          "id": 21,
          "value": 1.26088059
        },
        {
          "id": 22,
          "value": 4.70107889
        },
        {
          "id": 23,
          "value": 0.427948833
        },
        {
          "id": 24,
          "value": 2.63732553
        },
        {
          "id": 25,
          "value": 2.73652029
        },
        {
          "id": 26,
          "value": 7.61766005
        },
        {
          "id": 27,
          "value": 7.48984241
        },
        {
          "id": 28,
          "value": 0.0
        },
        {
          "id": 29,
          "value": 0.0
        },
        {
          "id": 30,
          "value": 0.0
        },
        {
          "id": 31,
          "value": 0.0
        },
        {
          "id": 32,
          "value": 0.0
        },
        {
          "id": 33,
          "value": 0.0
        },
        {
          "id": 34,
          "value": 0.0
        },
        {
          "id": 35,
          "value": 0.0
        }
      ],
      "rightModuleId": 52,
      "data": {
        "running": true,
        "gates": [
          1,
          1,
          1,
          1,
          0,
          1,
          0,
          0
        ]
      },
      "pos": [
        2,
        0
      ]
    },
    {
      "id": 104,
      "plugin": "Hora-Mixers",
      "version": "1.0.2",
      "model": "StereoMixer-8",
      "params": [
        {
          "id": 0,
          "value": 0.583200037
        },
        {
          "id": 1,
          "value": 1.06840003
        },
        {
          "id": 2,
          "value": 1.10520029
        },
        {
          "id": 3,
          "value": 1.00360012
        },
        {
          "id": 4,
          "value": 1.00080013
        },
        {
          "id": 5,
          "value": 0.842400253
        },
        {
          "id": 6,
          "value": 0.835200131
        },
        {
          "id": 7,
          "value": 1.20000005
        },
        {
          "id": 8,
          "value": 1.13520002
        },
        {
          "id": 9,
          "value": 0.609999895
        },
        {
          "id": 10,
          "value": 1.35399985
        },
        {
          "id": 11,
          "value": 0.51700002
        },
        {
          "id": 12,
          "value": 1.39299989
        },
        {
          "id": 13,
          "value": 0.376000106
        },
        {
          "id": 14,
          "value": 1.5250001
        },
        {
          "id": 15,
          "value": 1.0
        },
        {
          "id": 16,
          "value": 1.0
        },
        {
          "id": 17,
          "value": 0.0
        },
        {
          "id": 18,
          "value": 0.0
        },
        {
          "id": 19,
          "value": 0.0
        },
        {
          "id": 20,
          "value": 0.0
        },
        {
          "id": 21,
          "value": 0.0
        },
        {
          "id": 22,
          "value": 0.0
        },
        {
          "id": 23,
          "value": 0.0
        },
        {
          "id": 24,
          "value": 0.0
        }
      ],
      "leftModuleId": 105,
      "rightModuleId": 79,
      "pos": [
        46,
        2
      ]
    },
    {
      "id": 105,
      "plugin": "VCV-Spectra",
      "version": "1.0.2",
      "model": "Spectra",
      "params": [
        {
          "id": 0,
          "value": 1.0720005
        },
        {
          "id": 1,
          "value": 1.12800002
        },
        {
          "id": 2,
          "value": 1.16200054
        },
        {
          "id": 3,
          "value": 0.170999929
        },
        {
          "id": 4,
          "value": 0.0450000465
        },
        {
          "id": 5,
          "value": 0.460500002
        },
        {
          "id": 6,
          "value": 0.468000025
        },
        {
          "id": 7,
          "value": 0.319999993
        },
        {
          "id": 8,
          "value": 0.385999918
        },
        {
          "id": 9,
          "value": 0.0044997381
        },
        {
          "id": 10,
          "value": 0.61650008
        },
        {
          "id": 11,
          "value": 1.0
        }
      ],
      "rightModuleId": 104,
      "data": {
        "modelId": 0,
        "view": 1,
        "bandSettings": [
          {
            "enabled": true,
            "amplitude": 0.506756783,
            "decay": 0.493243217
          },
          {
            "enabled": true,
            "amplitude": 0.506756783,
            "decay": 0.331081092
          },
          {
            "enabled": true,
            "amplitude": 0.317567587,
            "decay": 0.506756783
          },
          {
            "enabled": true,
            "amplitude": 0.304054081,
            "decay": 0.912162185
          },
          {
            "enabled": true,
            "amplitude": 0.371621609,
            "decay": 0.89864862
          },
          {
            "enabled": true,
            "amplitude": 0.277027011,
            "decay": 0.614864826
          },
          {
            "enabled": true,
            "amplitude": 0.412162185,
            "decay": 0.871621609
          },
          {
            "enabled": true,
            "amplitude": 0.25,
            "decay": 0.412162185
          },
          {
            "enabled": true,
            "amplitude": 0.317567587,
            "decay": 0.885135114
          },
          {
            "enabled": true,
            "amplitude": 0.722972989,
            "decay": 0.668918908
          },
          {
            "enabled": true,
            "amplitude": 0.641891897,
            "decay": 0.560810804
          },
          {
            "enabled": true,
            "amplitude": 0.831081092,
            "decay": 0.668918908
          },
          {
            "enabled": true,
            "amplitude": 0.736486495,
            "decay": 0.682432413
          },
          {
            "enabled": true,
            "amplitude": 0.939189196,
            "decay": 0.722972989
          },
          {
            "enabled": true,
            "amplitude": 0.695945978,
            "decay": 0.628378391
          },
          {
            "enabled": true,
            "amplitude": 0.520270228,
            "decay": 0.587837815
          }
        ]
      },
      "pos": [
        0,
        2
      ]
    },
    {
      "id": 106,
      "plugin": "Core",
      "version": "1.1.6",
      "model": "Notes",
      "params": [],
      "text": "\n\n\nKick snare  above \n\n\nsend out to modular / Midas and back to SATUR \n\n\nSAMPLE   plaits  ",
      "pos": [
        150,
        2
      ]
    },
    {
      "id": 107,
      "plugin": "AudibleInstruments",
      "version": "1.3.1",
      "model": "Rings",
      "params": [
        {
          "id": 0,
          "value": 0.0
        },
        {
          "id": 1,
          "value": 0.0
        },
        {
          "id": 2,
          "value": 18.779995
        },
        {
          "id": 3,
          "value": 0.0
        },
        {
          "id": 4,
          "value": 0.557499886
        },
        {
          "id": 5,
          "value": 0.620500028
        },
        {
          "id": 6,
          "value": 0.279500127
        },
        {
          "id": 7,
          "value": 0.111000009
        },
        {
          "id": 8,
          "value": 0.0
        },
        {
          "id": 9,
          "value": 0.0
        },
        {
          "id": 10,
          "value": 0.0
        },
        {
          "id": 11,
          "value": 0.0
        }
      ],
      "leftModuleId": 100,
      "data": {
        "polyphony": 2,
        "model": 2,
        "easterEgg": false
      },
      "pos": [
        112,
        0
      ]
    },
    {
      "id": 108,
      "plugin": "AudibleInstruments",
      "version": "1.3.1",
      "model": "Plaits",
      "params": [
        {
          "id": 0,
          "value": 0.0
        },
        {
          "id": 1,
          "value": 0.0
        },
        {
          "id": 2,
          "value": -2.23622036
        },
        {
          "id": 3,
          "value": 0.834645689
        },
        {
          "id": 4,
          "value": 0.527559042
        },
        {
          "id": 5,
          "value": 0.929133832
        },
        {
          "id": 6,
          "value": 0.297000021
        },
        {
          "id": 7,
          "value": 0.774000168
        },
        {
          "id": 8,
          "value": 0.0
        },
        {
          "id": 9,
          "value": 0.5
        },
        {
          "id": 10,
          "value": 0.5
        }
      ],
      "rightModuleId": 110,
      "data": {
        "lowCpu": false,
        "model": 13
      },
      "pos": [
        124,
        1
      ]
    },
    {
      "id": 109,
      "plugin": "AudibleInstruments",
      "version": "1.3.1",
      "model": "Veils",
      "params": [
        {
          "id": 0,
          "value": 0.520500064
        },
        {
          "id": 1,
          "value": 0.527999938
        },
        {
          "id": 2,
          "value": 0.0
        },
        {
          "id": 3,
          "value": 0.0
        },
        {
          "id": 4,
          "value": 1.0
        },
        {
          "id": 5,
          "value": 0.656499922
        },
        {
          "id": 6,
          "value": 1.0
        },
        {
          "id": 7,
          "value": 1.0
        }
      ],
      "leftModuleId": 66,
      "pos": [
        88,
        1
      ]
    },
    {
      "id": 110,
      "plugin": "AudibleInstruments",
      "version": "1.3.1",
      "model": "Plaits",
      "params": [
        {
          "id": 0,
          "value": 0.0
        },
        {
          "id": 1,
          "value": 0.0
        },
        {
          "id": 2,
          "value": 0.356000245
        },
        {
          "id": 3,
          "value": 0.688499749
        },
        {
          "id": 4,
          "value": 0.456692904
        },
        {
          "id": 5,
          "value": 0.511811018
        },
        {
          "id": 6,
          "value": 0.497999996
        },
        {
          "id": 7,
          "value": 0.0
        },
        {
          "id": 8,
          "value": -0.228346467
        },
        {
          "id": 9,
          "value": 0.5
        },
        {
          "id": 10,
          "value": 0.5
        }
      ],
      "leftModuleId": 108,
      "data": {
        "lowCpu": false,
        "model": 15
      },
      "pos": [
        136,
        1
      ]
    },
    {
      "id": 111,
      "plugin": "NYSTHI",
      "version": "1.0.13",
      "model": "MultiTrack",
      "params": [
        {
          "id": 0,
          "value": 0.0
        },
        {
          "id": 1,
          "value": 0.0
        },
        {
          "id": 2,
          "value": 0.0
        },
        {
          "id": 3,
          "value": 0.0
        }
      ],
      "leftModuleId": 84,
      "data": {
        "nysthi_id": "MT_2IODfk02",
        "wavebits": 10,
        "m_attenuation": 0.5
      },
      "pos": [
        161,
        1
      ]
    },
    {
      "id": 112,
      "plugin": "Core",
      "version": "1.1.6",
      "model": "MIDI-Map",
      "params": [],
      "data": {
        "maps": [
          {
            "cc": 25,
            "moduleId": 101,
            "paramId": 9
          },
          {
            "cc": 31,
            "moduleId": 79,
            "paramId": 6
          },
          {
            "cc": 0,
            "moduleId": 52,
            "paramId": 0
          },
          {
            "cc": 11,
            "moduleId": -1,
            "paramId": 0
          },
          {
            "cc": 2,
            "moduleId": 108,
            "paramId": 2
          },
          {
            "cc": 3,
            "moduleId": 108,
            "paramId": 3
          },
          {
            "cc": 13,
            "moduleId": 108,
            "paramId": 4
          },
          {
            "cc": 42,
            "moduleId": 101,
            "paramId": 7
          },
          {
            "cc": 9,
            "moduleId": 110,
            "paramId": 5
          },
          {
            "cc": 11,
            "moduleId": 108,
            "paramId": 5
          },
          {
            "cc": 8,
            "moduleId": 110,
            "paramId": 4
          },
          {
            "cc": 11,
            "moduleId": -1,
            "paramId": 0
          },
          {
            "cc": -1,
            "moduleId": -1,
            "paramId": 0
          }
        ],
        "midi": {
          "driver": 4,
          "deviceName": "Faderfox EC4 3",
          "channel": -1
        }
      },
      "pos": [
        122,
        2
      ]
    }
  ],
  "cables": [
    {
      "id": 312,
      "outputModuleId": 73,
      "outputId": 1,
      "inputModuleId": 89,
      "inputId": 0,
      "color": "#c91847"
    },
    {
      "id": 334,
      "outputModuleId": 52,
      "outputId": 1,
      "inputModuleId": 94,
      "inputId": 0,
      "color": "#c9b70e"
    },
    {
      "id": 336,
      "outputModuleId": 52,
      "outputId": 2,
      "inputModuleId": 95,
      "inputId": 0,
      "color": "#c91847"
    },
    {
      "id": 340,
      "outputModuleId": 96,
      "outputId": 0,
      "inputModuleId": 76,
      "inputId": 0,
      "color": "#c9b70e"
    },
    {
      "id": 346,
      "outputModuleId": 96,
      "outputId": 0,
      "inputModuleId": 76,
      "inputId": 1,
      "color": "#c91847"
    },
    {
      "id": 330,
      "outputModuleId": 73,
      "outputId": 2,
      "inputModuleId": 93,
      "inputId": 0,
      "color": "#c9b70e"
    },
    {
      "id": 351,
      "outputModuleId": 73,
      "outputId": 1,
      "inputModuleId": 98,
      "inputId": 0,
      "color": "#0986ad"
    },
    {
      "id": 352,
      "outputModuleId": 98,
      "outputId": 0,
      "inputModuleId": 96,
      "inputId": 0,
      "color": "#c91847"
    },
    {
      "id": 353,
      "outputModuleId": 58,
      "outputId": 3,
      "inputModuleId": 98,
      "inputId": 2,
      "color": "#0986ad"
    },
    {
      "id": 355,
      "outputModuleId": 58,
      "outputId": 4,
      "inputModuleId": 98,
      "inputId": 4,
      "color": "#0c8e15"
    },
    {
      "id": 356,
      "outputModuleId": 52,
      "outputId": 3,
      "inputModuleId": 98,
      "inputId": 5,
      "color": "#c91847"
    },
    {
      "id": 357,
      "outputModuleId": 58,
      "outputId": 5,
      "inputModuleId": 96,
      "inputId": 1,
      "color": "#0986ad"
    },
    {
      "id": 365,
      "outputModuleId": 94,
      "outputId": 0,
      "inputModuleId": 96,
      "inputId": 7,
      "color": "#0986ad"
    },
    {
      "id": 369,
      "outputModuleId": 95,
      "outputId": 0,
      "inputModuleId": 99,
      "inputId": 7,
      "color": "#c9b70e"
    },
    {
      "id": 362,
      "outputModuleId": 79,
      "outputId": 1,
      "inputModuleId": 23,
      "inputId": 5,
      "color": "#c9b70e"
    },
    {
      "id": 374,
      "outputModuleId": 52,
      "outputId": 0,
      "inputModuleId": 73,
      "inputId": 2,
      "color": "#0c8e15"
    },
    {
      "id": 377,
      "outputModuleId": 52,
      "outputId": 0,
      "inputModuleId": 100,
      "inputId": 2,
      "color": "#c91847"
    },
    {
      "id": 382,
      "outputModuleId": 100,
      "outputId": 0,
      "inputModuleId": 101,
      "inputId": 0,
      "color": "#c91847"
    },
    {
      "id": 384,
      "outputModuleId": 101,
      "outputId": 6,
      "inputModuleId": 76,
      "inputId": 4,
      "color": "#c9b70e"
    },
    {
      "id": 367,
      "outputModuleId": 99,
      "outputId": 0,
      "inputModuleId": 75,
      "inputId": 1,
      "color": "#0c8e15"
    },
    {
      "id": 366,
      "outputModuleId": 99,
      "outputId": 1,
      "inputModuleId": 75,
      "inputId": 0,
      "color": "#c9b70e"
    },
    {
      "id": 387,
      "outputModuleId": 66,
      "outputId": 1,
      "inputModuleId": 90,
      "inputId": 2,
      "color": "#c91847"
    },
    {
      "id": 388,
      "outputModuleId": 100,
      "outputId": 5,
      "inputModuleId": 90,
      "inputId": 3,
      "color": "#0986ad"
    },
    {
      "id": 389,
      "outputModuleId": 100,
      "outputId": 6,
      "inputModuleId": 90,
      "inputId": 4,
      "color": "#c9b70e"
    },
    {
      "id": 390,
      "outputModuleId": 101,
      "outputId": 7,
      "inputModuleId": 75,
      "inputId": 4,
      "color": "#0c8e15"
    },
    {
      "id": 391,
      "outputModuleId": 101,
      "outputId": 7,
      "inputModuleId": 75,
      "inputId": 5,
      "color": "#c91847"
    },
    {
      "id": 392,
      "outputModuleId": 100,
      "outputId": 1,
      "inputModuleId": 101,
      "inputId": 1,
      "color": "#0986ad"
    },
    {
      "id": 395,
      "outputModuleId": 66,
      "outputId": 3,
      "inputModuleId": 96,
      "inputId": 4,
      "color": "#c91847"
    },
    {
      "id": 396,
      "outputModuleId": 90,
      "outputId": 0,
      "inputModuleId": 96,
      "inputId": 3,
      "color": "#0986ad"
    },
    {
      "id": 399,
      "outputModuleId": 90,
      "outputId": 0,
      "inputModuleId": 79,
      "inputId": 3,
      "color": "#c91847"
    },
    {
      "id": 400,
      "outputModuleId": 101,
      "outputId": 6,
      "inputModuleId": 79,
      "inputId": 9,
      "color": "#0986ad"
    },
    {
      "id": 401,
      "outputModuleId": 102,
      "outputId": 1,
      "inputModuleId": 52,
      "inputId": 3,
      "color": "#0c8e15"
    },
    {
      "id": 363,
      "outputModuleId": 76,
      "outputId": 2,
      "inputModuleId": 104,
      "inputId": 0,
      "color": "#0c8e15"
    },
    {
      "id": 370,
      "outputModuleId": 76,
      "outputId": 1,
      "inputModuleId": 104,
      "inputId": 1,
      "color": "#0c8e15"
    },
    {
      "id": 372,
      "outputModuleId": 75,
      "outputId": 2,
      "inputModuleId": 104,
      "inputId": 2,
      "color": "#0986ad"
    },
    {
      "id": 344,
      "outputModuleId": 75,
      "outputId": 2,
      "inputModuleId": 104,
      "inputId": 3,
      "color": "#0986ad"
    },
    {
      "id": 361,
      "outputModuleId": 79,
      "outputId": 0,
      "inputModuleId": 23,
      "inputId": 4,
      "color": "#0986ad"
    },
    {
      "id": 404,
      "outputModuleId": 102,
      "outputId": 2,
      "inputModuleId": 101,
      "inputId": 6,
      "color": "#0c8e15"
    },
    {
      "id": 405,
      "outputModuleId": 102,
      "outputId": 3,
      "inputModuleId": 90,
      "inputId": 5,
      "color": "#c91847"
    },
    {
      "id": 354,
      "outputModuleId": 73,
      "outputId": 5,
      "inputModuleId": 98,
      "inputId": 3,
      "color": "#c9b70e"
    },
    {
      "id": 408,
      "outputModuleId": 79,
      "outputId": 0,
      "inputModuleId": 84,
      "inputId": 2,
      "color": "#0c8e15"
    },
    {
      "id": 409,
      "outputModuleId": 79,
      "outputId": 1,
      "inputModuleId": 84,
      "inputId": 3,
      "color": "#c91847"
    },
    {
      "id": 412,
      "outputModuleId": 105,
      "outputId": 32,
      "inputModuleId": 23,
      "inputId": 2,
      "color": "#c91847"
    },
    {
      "id": 413,
      "outputModuleId": 105,
      "outputId": 33,
      "inputModuleId": 23,
      "inputId": 3,
      "color": "#0986ad"
    },
    {
      "id": 410,
      "outputModuleId": 104,
      "outputId": 0,
      "inputModuleId": 105,
      "inputId": 6,
      "color": "#0986ad"
    },
    {
      "id": 411,
      "outputModuleId": 104,
      "outputId": 1,
      "inputModuleId": 105,
      "inputId": 7,
      "color": "#c9b70e"
    },
    {
      "id": 415,
      "outputModuleId": 79,
      "outputId": 0,
      "inputModuleId": 105,
      "inputId": 8,
      "color": "#0c8e15"
    },
    {
      "id": 416,
      "outputModuleId": 66,
      "outputId": 4,
      "inputModuleId": 105,
      "inputId": 15,
      "color": "#c91847"
    },
    {
      "id": 420,
      "outputModuleId": 105,
      "outputId": 32,
      "inputModuleId": 84,
      "inputId": 4,
      "color": "#c9b70e"
    },
    {
      "id": 421,
      "outputModuleId": 105,
      "outputId": 33,
      "inputModuleId": 84,
      "inputId": 5,
      "color": "#0c8e15"
    },
    {
      "id": 422,
      "outputModuleId": 100,
      "outputId": 4,
      "inputModuleId": 105,
      "inputId": 13,
      "color": "#c91847"
    },
    {
      "id": 423,
      "outputModuleId": 107,
      "outputId": 0,
      "inputModuleId": 104,
      "inputId": 4,
      "color": "#c9b70e"
    },
    {
      "id": 424,
      "outputModuleId": 107,
      "outputId": 1,
      "inputModuleId": 104,
      "inputId": 5,
      "color": "#0c8e15"
    },
    {
      "id": 428,
      "outputModuleId": 90,
      "outputId": 0,
      "inputModuleId": 107,
      "inputId": 2,
      "color": "#c9b70e"
    },
    {
      "id": 427,
      "outputModuleId": 102,
      "outputId": 1,
      "inputModuleId": 107,
      "inputId": 0,
      "color": "#0986ad"
    },
    {
      "id": 433,
      "outputModuleId": 108,
      "outputId": 0,
      "inputModuleId": 104,
      "inputId": 6,
      "color": "#c91847"
    },
    {
      "id": 402,
      "outputModuleId": 104,
      "outputId": 0,
      "inputModuleId": 109,
      "inputId": 0,
      "color": "#c91847"
    },
    {
      "id": 403,
      "outputModuleId": 104,
      "outputId": 1,
      "inputModuleId": 109,
      "inputId": 1,
      "color": "#0986ad"
    },
    {
      "id": 436,
      "outputModuleId": 109,
      "outputId": 1,
      "inputModuleId": 23,
      "inputId": 1,
      "color": "#0c8e15"
    },
    {
      "id": 437,
      "outputModuleId": 73,
      "outputId": 2,
      "inputModuleId": 79,
      "inputId": 0,
      "color": "#c91847"
    },
    {
      "id": 439,
      "outputModuleId": 110,
      "outputId": 0,
      "inputModuleId": 104,
      "inputId": 7,
      "color": "#c9b70e"
    },
    {
      "id": 441,
      "outputModuleId": 90,
      "outputId": 0,
      "inputModuleId": 108,
      "inputId": 1,
      "color": "#c91847"
    },
    {
      "id": 444,
      "outputModuleId": 58,
      "outputId": 4,
      "inputModuleId": 108,
      "inputId": 5,
      "color": "#c91847"
    },
    {
      "id": 429,
      "outputModuleId": 100,
      "outputId": 1,
      "inputModuleId": 107,
      "inputId": 5,
      "color": "#0c8e15"
    },
    {
      "id": 435,
      "outputModuleId": 109,
      "outputId": 0,
      "inputModuleId": 23,
      "inputId": 0,
      "color": "#c9b70e"
    },
    {
      "id": 446,
      "outputModuleId": 109,
      "outputId": 0,
      "inputModuleId": 84,
      "inputId": 0,
      "color": "#0986ad"
    },
    {
      "id": 447,
      "outputModuleId": 109,
      "outputId": 1,
      "inputModuleId": 84,
      "inputId": 1,
      "color": "#0c8e15"
    },
    {
      "id": 448,
      "outputModuleId": 110,
      "outputId": 0,
      "inputModuleId": 84,
      "inputId": 7,
      "color": "#c91847"
    },
    {
      "id": 449,
      "outputModuleId": 108,
      "outputId": 0,
      "inputModuleId": 84,
      "inputId": 6,
      "color": "#0986ad"
    },
    {
      "id": 450,
      "outputModuleId": 90,
      "outputId": 0,
      "inputModuleId": 110,
      "inputId": 3,
      "color": "#0c8e15"
    },
    {
      "id": 451,
      "outputModuleId": 100,
      "outputId": 4,
      "inputModuleId": 101,
      "inputId": 7,
      "color": "#c91847"
    },
    {
      "id": 452,
      "outputModuleId": 90,
      "outputId": 0,
      "inputModuleId": 110,
      "inputId": 1,
      "color": "#0986ad"
    },
    {
      "id": 383,
      "outputModuleId": 101,
      "outputId": 6,
      "inputModuleId": 76,
      "inputId": 5,
      "color": "#0986ad"
    },
    {
      "id": 458,
      "outputModuleId": 23,
      "outputId": 4,
      "inputModuleId": 111,
      "inputId": 0,
      "color": "#0c8e15"
    },
    {
      "id": 459,
      "outputModuleId": 23,
      "outputId": 5,
      "inputModuleId": 111,
      "inputId": 1,
      "color": "#c91847"
    },
    {
      "id": 461,
      "outputModuleId": 111,
      "outputId": 0,
      "inputModuleId": 84,
      "inputId": 8,
      "color": "#0c8e15"
    },
    {
      "id": 462,
      "outputModuleId": 111,
      "outputId": 1,
      "inputModuleId": 84,
      "inputId": 9,
      "color": "#0986ad"
    },
    {
      "id": 463,
      "outputModuleId": 104,
      "outputId": 0,
      "inputModuleId": 79,
      "inputId": 6,
      "color": "#c9b70e"
    },
    {
      "id": 464,
      "outputModuleId": 104,
      "outputId": 1,
      "inputModuleId": 79,
      "inputId": 7,
      "color": "#0c8e15"
    },
    {
      "id": 438,
      "outputModuleId": 100,
      "outputId": 1,
      "inputModuleId": 110,
      "inputId": 5,
      "color": "#0986ad"
    },
    {
      "id": 465,
      "outputModuleId": 66,
      "outputId": 7,
      "inputModuleId": 105,
      "inputId": 12,
      "color": "#c91847"
    },
    {
      "id": 466,
      "outputModuleId": 100,
      "outputId": 0,
      "inputModuleId": 96,
      "inputId": 5,
      "color": "#0986ad"
    },
    {
      "id": 419,
      "outputModuleId": 101,
      "outputId": 7,
      "inputModuleId": 105,
      "inputId": 11,
      "color": "#c91847"
    },
    {
      "id": 467,
      "outputModuleId": 101,
      "outputId": 1,
      "inputModuleId": 99,
      "inputId": 5,
      "color": "#c9b70e"
    },
    {
      "id": 417,
      "outputModuleId": 101,
      "outputId": 6,
      "inputModuleId": 105,
      "inputId": 20,
      "color": "#0986ad"
    },
    {
      "id": 468,
      "outputModuleId": 66,
      "outputId": 0,
      "inputModuleId": 105,
      "inputId": 44,
      "color": "#c91847"
    },
    {
      "id": 469,
      "outputModuleId": 66,
      "outputId": 5,
      "inputModuleId": 105,
      "inputId": 45,
      "color": "#0986ad"
    },
    {
      "id": 373,
      "outputModuleId": 52,
      "outputId": 1,
      "inputModuleId": 99,
      "inputId": 3,
      "color": "#c9b70e"
    },
    {
      "id": 470,
      "outputModuleId": 52,
      "outputId": 3,
      "inputModuleId": 99,
      "inputId": 0,
      "color": "#c9b70e"
    },
    {
      "id": 432,
      "outputModuleId": 99,
      "outputId": 0,
      "inputModuleId": 107,
      "inputId": 7,
      "color": "#0c8e15"
    },
    {
      "id": 454,
      "outputModuleId": 52,
      "outputId": 5,
      "inputModuleId": 90,
      "inputId": 0,
      "color": "#c91847"
    },
    {
      "id": 338,
      "outputModuleId": 102,
      "outputId": 5,
      "inputModuleId": 58,
      "inputId": 7,
      "color": "#c91847"
    },
    {
      "id": 358,
      "outputModuleId": 52,
      "outputId": 4,
      "inputModuleId": 58,
      "inputId": 9,
      "color": "#c9b70e"
    }
  ]
}